<svg xmlns="http://www.w3.org/2000/svg" viewBox="0 0 400 400" role="img"><defs><linearGradient id="bg" x1="0" y1="0" x2="1" y2="1"><stop offset="0" stop-color="#f4f5fa"/><stop offset="1" stop-color="#e8eaf3"/></linearGradient></defs><rect width="400" height="400" fill="url(#bg)"/><ellipse cx="200" cy="332" rx="118" ry="14" fill="#1f2937" opacity=".10"/><g fill="#94a3b8"><rect x="100" y="160" width="12" height="90" rx="3"/><polygon points="90,160 122,160 116,140 96,140" fill="#64748b"/><rect x="150" y="190" width="12" height="90" rx="3"/><polygon points="140,190 172,190 166,170 146,170" fill="#64748b"/><circle cx="240" cy="250" r="34" fill="#64748b"/><circle cx="240" cy="250" r="16" fill="#e5e7eb"/><circle cx="310" cy="230" r="28" fill="#94a3b8"/><circle cx="310" cy="230" r="13" fill="#e5e7eb"/><path d="M200 130l30 20-30 20-30-20Z" fill="#475569"/></g><path d="M100 180h12M100 200h12M100 220h12M150 210h12M150 230h12M150 250h12" stroke="#475569" stroke-width="3"/></svg>
