<svg xmlns="http://www.w3.org/2000/svg" viewBox="0 0 400 400" role="img"><defs><linearGradient id="bg" x1="0" y1="0" x2="1" y2="1"><stop offset="0" stop-color="#f4f5fa"/><stop offset="1" stop-color="#e8eaf3"/></linearGradient></defs><rect width="400" height="400" fill="url(#bg)"/><ellipse cx="200" cy="332" rx="118" ry="14" fill="#1f2937" opacity=".10"/><rect x="110" y="170" width="180" height="130" rx="8" fill="#7c5cf5"/><rect x="100" y="140" width="200" height="40" rx="8" fill="#6d3ff0"/><rect x="190" y="140" width="20" height="160" fill="#fbbf24"/><path d="M200 140c-30-40-70-20-50 0 12 12 50 0 50 0Zm0 0c30-40 70-20 50 0-12 12-50 0-50 0Z" fill="#f59e0b"/><rect x="315" y="220" width="46" height="80" rx="6" fill="#f97316"/><rect x="315" y="220" width="46" height="18" rx="4" fill="#ea580c"/></svg>
