<svg xmlns="http://www.w3.org/2000/svg" viewBox="0 0 400 400" role="img"><defs><linearGradient id="bg" x1="0" y1="0" x2="1" y2="1"><stop offset="0" stop-color="#f4f5fa"/><stop offset="1" stop-color="#e8eaf3"/></linearGradient></defs><rect width="400" height="400" fill="url(#bg)"/><ellipse cx="200" cy="332" rx="118" ry="14" fill="#1f2937" opacity=".10"/><rect x="120" y="70" width="170" height="240" rx="12" fill="#1e3a8a"/><rect x="120" y="70" width="24" height="240" rx="8" fill="#1e40af"/><rect x="116" y="94" width="10" height="12" rx="5" fill="#cbd5e1"/><rect x="116" y="124" width="10" height="12" rx="5" fill="#cbd5e1"/><rect x="116" y="154" width="10" height="12" rx="5" fill="#cbd5e1"/><rect x="116" y="184" width="10" height="12" rx="5" fill="#cbd5e1"/><rect x="116" y="214" width="10" height="12" rx="5" fill="#cbd5e1"/><rect x="116" y="244" width="10" height="12" rx="5" fill="#cbd5e1"/><rect x="116" y="274" width="10" height="12" rx="5" fill="#cbd5e1"/><rect x="170" y="120" width="90" height="12" rx="6" fill="#fff" opacity=".8"/><rect x="170" y="146" width="60" height="8" rx="4" fill="#fff" opacity=".45"/></svg>
