<svg xmlns="http://www.w3.org/2000/svg" viewBox="0 0 400 400" role="img"><defs><linearGradient id="bg" x1="0" y1="0" x2="1" y2="1"><stop offset="0" stop-color="#f4f5fa"/><stop offset="1" stop-color="#e8eaf3"/></linearGradient></defs><rect width="400" height="400" fill="url(#bg)"/><ellipse cx="200" cy="332" rx="118" ry="14" fill="#1f2937" opacity=".10"/><rect x="110" y="110" width="180" height="190" rx="12" fill="#f472b6"/><rect x="110" y="110" width="180" height="26" rx="8" fill="#ec4899"/><rect x="110" y="274" width="180" height="26" rx="8" fill="#ec4899"/><rect x="118" y="300" width="5" height="18" rx="2.5" fill="#f9a8d4"/><rect x="132.5" y="300" width="5" height="18" rx="2.5" fill="#f9a8d4"/><rect x="147" y="300" width="5" height="18" rx="2.5" fill="#f9a8d4"/><rect x="161.5" y="300" width="5" height="18" rx="2.5" fill="#f9a8d4"/><rect x="176" y="300" width="5" height="18" rx="2.5" fill="#f9a8d4"/><rect x="190.5" y="300" width="5" height="18" rx="2.5" fill="#f9a8d4"/><rect x="205" y="300" width="5" height="18" rx="2.5" fill="#f9a8d4"/><rect x="219.5" y="300" width="5" height="18" rx="2.5" fill="#f9a8d4"/><rect x="234" y="300" width="5" height="18" rx="2.5" fill="#f9a8d4"/><rect x="248.5" y="300" width="5" height="18" rx="2.5" fill="#f9a8d4"/><rect x="263" y="300" width="5" height="18" rx="2.5" fill="#f9a8d4"/><rect x="277.5" y="300" width="5" height="18" rx="2.5" fill="#f9a8d4"/><path d="M110 190h180M110 220h180" stroke="#fbcfe8" stroke-width="3" opacity=".7"/></svg>
